<svg preserveAspectRatio="none" overflow="visible" style="display: block;" width="86" height="86" viewBox="0 0 86 86" fill="none" xmlns="http://www.w3.org/2000/svg">
<g id="emergency_recording" filter="url(#filter0_i_0_123)">
<path id="Vector" d="M64.5 37.5533V21.5C64.5 17.5583 61.275 14.3333 57.3333 14.3333H14.3333C10.3917 14.3333 7.16667 17.5583 7.16667 21.5V64.5C7.16667 68.4417 10.3917 71.6667 14.3333 71.6667H57.3333C61.275 71.6667 64.5 68.4417 64.5 64.5V48.4467L78.8333 62.7083V23.2917L64.5 37.5533ZM57.3333 64.5H14.3333V21.5H57.3333V64.5ZM43 43L53.75 49.1992L50.1667 55.3983L39.4167 49.1992V60.9167H32.25V49.1992L21.5 55.3983L17.9167 49.1992L28.6667 43L17.9167 36.8008L21.5 30.6017L32.25 36.8008V25.0833H39.4167V36.8008L50.1667 30.6017L53.75 36.8008L43 43Z" fill="url(#paint0_linear_0_123)"/>
</g>
<defs>
<filter id="filter0_i_0_123" x="0" y="0" width="86" height="88" filterUnits="userSpaceOnUse" color-interpolation-filters="sRGB">
<feFlood flood-opacity="0" result="BackgroundImageFix"/>
<feBlend mode="normal" in="SourceGraphic" in2="BackgroundImageFix" result="shape"/>
<feColorMatrix in="SourceAlpha" type="matrix" values="0 0 0 0 0 0 0 0 0 0 0 0 0 0 0 0 0 0 127 0" result="hardAlpha"/>
<feOffset dy="3"/>
<feGaussianBlur stdDeviation="1"/>
<feComposite in2="hardAlpha" operator="arithmetic" k2="-1" k3="1"/>
<feColorMatrix type="matrix" values="0 0 0 0 1 0 0 0 0 1 0 0 0 0 1 0 0 0 0.4 0"/>
<feBlend mode="normal" in2="shape" result="effect1_innerShadow_0_123"/>
</filter>
<linearGradient id="paint0_linear_0_123" x1="43" y1="14.3333" x2="43" y2="71.6667" gradientUnits="userSpaceOnUse">
<stop stop-color="#929CC0"/>
<stop offset="1" stop-color="#C2986B"/>
</linearGradient>
</defs>
</svg>
