<svg preserveAspectRatio="none" overflow="visible" style="display: block;" width="24" height="24" viewBox="0 0 24 24" fill="none" xmlns="http://www.w3.org/2000/svg">
<g id="wb_sunny">
<path id="Vector" d="M6.76 5.34L4.96 3.55L3.55 4.96L5.34 6.75L6.76 5.34ZM1 11H4V13H1V11ZM11 1.05H13V4H11V1.05ZM19.04 3.545L20.448 4.952L18.658 6.742L17.251 5.334L19.04 3.545ZM17.24 18.66L19.03 20.46L20.44 19.05L18.64 17.26L17.24 18.66ZM20 11H23V13H20V11ZM12 6C8.69 6 6 8.69 6 12C6 15.31 8.69 18 12 18C15.31 18 18 15.31 18 12C18 8.69 15.31 6 12 6ZM12 16C9.79 16 8 14.21 8 12C8 9.79 9.79 8 12 8C14.21 8 16 9.79 16 12C16 14.21 14.21 16 12 16ZM11 20H13V22.95H11V20ZM3.55 19.04L4.96 20.45L6.75 18.65L5.34 17.24L3.55 19.04Z" fill="white"/>
</g>
</svg>
