<svg width="40" height="40" viewBox="0 0 40 40" fill="none" xmlns="http://www.w3.org/2000/svg">
<path d="M0 20C0 8.95431 8.95431 0 20 0V0C31.0457 0 40 8.95431 40 20V20C40 31.0457 31.0457 40 20 40V40C8.95431 40 0 31.0457 0 20V20Z" fill="#C2986B"/>
<path d="M27.5 14C26.19 14 25.13 15.01 25.02 16.3C23.14 15.8 22.18 14.5 20 14.5C17.81 14.5 16.86 15.8 14.98 16.3C14.87 15.02 13.81 14 12.5 14C11.12 14 10 15.12 10 16.5V17C10 23 13.6 24.81 16.52 24.98C17.53 25.62 18.72 26 20 26C21.28 26 22.47 25.62 23.48 24.98C26.4 24.81 30 23 30 17V16.5C30 15.12 28.88 14 27.5 14ZM11.5 17V16.5C11.5 15.95 11.95 15.5 12.5 15.5C13.05 15.5 13.5 15.95 13.5 16.5V19.5C13.5 20.78 13.88 21.97 14.51 22.98C12.99 22.27 11.5 20.65 11.5 17ZM15 19.5V17.85C16.12 17.62 16.95 17.16 17.66 16.77C18.48 16.33 19.07 16 20 16C20.93 16 21.52 16.33 22.34 16.78C23.05 17.17 23.88 17.62 25 17.86V19.51C25 22.27 22.76 24.51 20 24.51C17.24 24.51 15 22.26 15 19.5ZM28.5 17C28.5 20.65 27.01 22.27 25.49 22.98C26.13 21.97 26.5 20.78 26.5 19.5V16.5C26.5 15.95 26.95 15.5 27.5 15.5C28.05 15.5 28.5 15.95 28.5 16.5V17ZM18.69 18.48C18.25 18.74 17.73 19.04 17 19.24V18.2C17.48 18.03 17.84 17.82 18.18 17.62C18.72 17.3 19.23 17 20 17C20.77 17 21.27 17.3 21.8 17.62C22.14 17.82 22.51 18.04 23 18.21V19.25C22.25 19.04 21.74 18.74 21.29 18.47C20.83 18.2 20.49 18 20 18C19.51 18 19.16 18.2 18.69 18.48Z" fill="white"/>
</svg>
