<?xml version="1.0" encoding="UTF-8"?>
<svg id="Layer_2" data-name="Layer 2" xmlns="http://www.w3.org/2000/svg" viewBox="0 0 159.07 159.07">
  <defs>
    <style>
      .cls-1 {
        fill: #d2d4da;
      }

      .cls-1, .cls-2, .cls-3, .cls-4, .cls-5 {
        stroke-width: 0px;
      }

      .cls-2 {
        fill: #6e7174;
      }

      .cls-3 {
        fill: #f4f4f4;
      }

      .cls-4 {
        fill: #555a5e;
      }

      .cls-5 {
        fill: #dedfe0;
      }
    </style>
  </defs>
  <g id="OBJECTS">
    <g>
      <path class="cls-5" d="M159.07,79.53c0,21.44-8.49,40.91-22.28,55.21-14.47,15-34.77,24.32-57.25,24.32s-42.79-9.33-57.25-24.33C8.48,120.44,0,100.97,0,79.53,0,35.61,35.61,0,79.54,0s79.53,35.61,79.53,79.53Z"/>
      <g>
        <path class="cls-4" d="M92.52,30.68h-25.97c-8.04,0-14.32,6.97-13.47,14.97l2.42,22.87h48.07l2.42-22.87c.85-8-5.43-14.97-13.47-14.97Z"/>
        <path class="cls-3" d="M136.79,134.74c-14.47,15-34.77,24.32-57.25,24.32s-42.79-9.33-57.25-24.33l1.37-5.39c2.07-8.12,8.46-14.42,16.61-16.36l13.62-3.25c3.15-.75,5.95-2.4,8.11-4.67,1.92-2,3.32-4.49,4.04-7.27l1.06-4.13.29-1.11.02-.09,1.35-5.25.41-1.57h20.75l1.54,6,.14.54.08.3.02.07.29,1.12,1.06,4.11c1.53,5.92,6.2,10.52,12.15,11.94l13.62,3.25c8.14,1.95,14.54,8.25,16.6,16.36l1.37,5.4Z"/>
        <path class="cls-2" d="M136.78,134.75c-13.78,14.28-32.85,23.42-54.05,24.25-1.06.05-2.13.07-3.2.07s-2.14-.02-3.2-.06c-2.37-.1-4.71-.29-7.02-.59-18.38-2.36-34.8-10.99-47.03-23.68l1.37-5.39c2.07-8.12,8.46-14.42,16.61-16.37l13.62-3.25c1.23-.29,2.4-.72,3.5-1.27,4.85,5.17,11.5,8.64,18.95,9.42,1.05.11,2.12.17,3.2.17s2.15-.06,3.2-.17c7.45-.78,14.1-4.25,18.95-9.42,1.1.54,2.27.98,3.5,1.27l13.62,3.25c8.15,1.95,14.54,8.25,16.61,16.37l1.37,5.4Z"/>
        <path class="cls-1" d="M91.67,92.48c-1.76,7.73-6.53,13.27-12.13,13.27s-10.38-5.56-12.14-13.29l1.35-5.25.41-1.57h20.75l1.54,6,.14.54.08.3Z"/>
        <path class="cls-3" d="M56.33,63.06c-10.33-11.59-3.44,16.75,2.28,13.43,10.05-5.82-2.28-13.43-2.28-13.43Z"/>
        <path class="cls-3" d="M102.74,63.06c10.33-11.59,3.44,16.75-2.28,13.43-10.05-5.82,2.28-13.43,2.28-13.43Z"/>
        <path class="cls-3" d="M103.57,54.71c0,.88-.05,1.74-.14,2.6-.1,1.08-.74,7.03-1.9,13.53-1.29,7.2-3.24,15.07-5.88,17.71-1.38,1.38-2.63,2.7-3.85,3.89-1.1,1.08-2.19,2.06-3.34,2.88-1.66,1.19-3.44,2.07-5.63,2.51-1,.2-2.09.31-3.29.31h0c-4.06,0-6.87-1.23-9.41-3.18-.97-.75-1.9-1.6-2.85-2.52-1.21-1.19-2.46-2.51-3.84-3.89-1.96-1.96-3.54-6.77-4.75-12.06-.43-1.85-.81-3.76-1.14-5.63l-.18-1.02c-1.16-6.78-1.74-12.71-1.74-12.71-.07-.79-.12-1.6-.12-2.42,0-.21,0-.42,0-.63.05-1.89.32-3.73.78-5.49l.06-.24c2.68-9.76,11.35-17.04,21.81-17.63.45-.03.91-.04,1.37-.04h0c1.84,0,3.63.21,5.34.6,10.7,2.42,18.69,11.99,18.69,23.43Z"/>
        <g>
          <path class="cls-1" d="M68.09,74.7c-4.8,0-8.7-3.9-8.7-8.7s3.9-8.7,8.7-8.7,8.7,3.9,8.7,8.7-3.9,8.7-8.7,8.7ZM68.09,58.21c-4.29,0-7.79,3.49-7.79,7.79s3.49,7.79,7.79,7.79,7.79-3.49,7.79-7.79-3.49-7.79-7.79-7.79Z"/>
          <path class="cls-1" d="M90.98,74.7c-4.8,0-8.7-3.9-8.7-8.7s3.9-8.7,8.7-8.7,8.7,3.9,8.7,8.7-3.9,8.7-8.7,8.7ZM90.98,58.21c-4.29,0-7.79,3.49-7.79,7.79s3.49,7.79,7.79,7.79,7.79-3.49,7.79-7.79-3.49-7.79-7.79-7.79Z"/>
          <path class="cls-1" d="M83.19,66h-.91c0-1.51-1.23-2.74-2.74-2.74s-2.74,1.23-2.74,2.74h-.91c0-2.02,1.64-3.66,3.66-3.66s3.66,1.64,3.66,3.66Z"/>
        </g>
        <polygon class="cls-4" points="79.54 46.22 79.65 46.19 79.63 46.25 79.54 46.22"/>
        <path class="cls-4" d="M103.57,54.71c0,.82-.05,1.63-.12,2.42,0,0-.58,5.93-1.74,12.71,0,0,1.17-27.94-10.04-27.17l-2.08.6c-6.64,1.91-13.69,1.89-20.32-.05l-1.87-.55c-11.21-.77-10.04,27.17-10.04,27.17-1.16-6.78-1.74-12.71-1.74-12.71-.07-.79-.12-1.6-.12-2.42,0-.21,0-.42,0-.63.05-1.89.32-3.73.78-5.49l.06-.24c2.33-8.49,9.2-15.11,17.84-17.07.36-.08.71-.15,1.08-.22.4-.07.8-.13,1.21-.18.16-.03.31-.05.47-.06.4-.04.8-.08,1.21-.1.45-.03.91-.04,1.37-.04h0c.46,0,.92,0,1.37.04.41.02.81.06,1.21.1.16.01.31.03.47.06.41.05.81.11,1.21.18.37.07.72.14,1.08.22,8.64,1.96,15.51,8.58,17.84,17.07l.06.24c.46,1.76.73,3.6.78,5.49,0,.21,0,.42,0,.63Z"/>
        <path class="cls-4" d="M100.39,76.49c-1.21,5.29-2.79,10.1-4.75,12.06-1.38,1.38-2.63,2.7-3.84,3.89-.95.92-1.88,1.77-2.85,2.52-1.79,1.37-3.72,2.39-6.12,2.87-.03.01-.06.01-.1.02-.22.04-.44.08-.67.11-.52.08-1.07.13-1.64.16-.29.01-.58.02-.88.02h0c-.3,0-.59-.01-.88-.02-.57-.03-1.12-.08-1.64-.16-.23-.03-.45-.07-.67-.11-.03-.01-.07-.01-.1-.02-2.4-.48-4.33-1.5-6.12-2.87-.97-.75-1.9-1.6-2.85-2.52-1.21-1.19-2.46-2.51-3.84-3.89-1.96-1.96-3.54-6.77-4.75-12.06.52-.05,3.55.15,8.72,9.62,3.49,6.41,11.04,7.84,12.12,8.02,0-.01.02-.01.03,0,1.08-.18,8.63-1.61,12.12-8.02,5.17-9.47,8.2-9.67,8.72-9.62Z"/>
        <path class="cls-4" d="M84.43,81.33h-9.55c-2.58,0-4.67,2.09-4.67,4.67h18.89c0-2.58-2.09-4.67-4.67-4.67Z"/>
        <path class="cls-5" d="M83.41,78.32c0,1.66-1.69,3-3.78,3s-3.77-1.34-3.77-3c0-.2.02-.4.08-.58.33,1.38,1.86,2.42,3.69,2.42s3.37-1.04,3.7-2.42c.06.19.08.38.08.58Z"/>
        <g>
          <path class="cls-4" d="M69.31,158.42c-18.38-2.36-34.8-10.99-47.03-23.68l1.37-5.39c2.07-8.12,8.46-14.42,16.61-16.37l13.62-3.25c1.23-.29,2.4-.72,3.5-1.27l11.93,49.96Z"/>
          <path class="cls-4" d="M89.75,158.42c18.38-2.36,34.8-10.99,47.03-23.68l-1.37-5.39c-2.07-8.12-8.46-14.42-16.61-16.37l-13.62-3.25c-1.23-.29-2.4-.72-3.5-1.27l-11.93,49.96Z"/>
        </g>
        <path class="cls-4" d="M82.73,117.88v41.12c-1.06.05-2.13.07-3.2.07s-2.14-.02-3.2-.06v-41.13c1.05.11,2.12.17,3.2.17s2.15-.06,3.2-.17Z"/>
      </g>
    </g>
  </g>
</svg>